:version 1.10
:name ASF
:units
  mass 1
  length 1
  angle deg
:documentation
  ASF file generated by Kaydara
:root
  axis xyz
  order  tx ty tz rx ry rz
  position 0 0 0
  orientation 0 0 0
:bonedata
  begin
    id 1
    name LeftUpLegDummy
    direction 1 -2.30186e-007 -8.31532e-007
    length 2.93387
    axis 0 0 0 xyz
  end
  begin
    id 2
    name LeftUpLeg
    direction -1.82929e-007 -1 -1.48925e-009
    length 17.3336
    axis -3.48766 0.00143442 -0.000521554 xyz
    dof rx ry rz
  end
  begin
    id 3
    name LeftLeg
    direction -1.82929e-007 -1 -5.23717e-011
    length 14.9995
    axis 3.68178 -0.00654042 -0.000282425 xyz
    dof rx ry rz
  end
  begin
    id 4
    name LeftFoot
    direction 8.31532e-007 -4.54534e-011 1
    length 6.74421
    axis 1.87234e-006 4.66016e-005 -5.96866e-006 xyz
    dof rx ry rz
  end
  begin
    id 5
    name LeftToes
    direction 0.00818058 -0.00485161 0.999955
    length 3.85048
    axis 1.06247e-005 4.65869e-005 -5.96999e-006 xyz
    dof rx ry rz
  end
  begin
    id 6
    name SpineDummy
    direction -5.8607e-008 0.943407 -0.331637
    length 5.93572
    axis 0 0 0 xyz
  end
  begin
    id 7
    name Spine
    direction -1.04988e-007 0.999988 0.00495137
    length 10.1015
    axis -0.001389 0.000121417 6.61666e-006 xyz
    dof rx ry rz
  end
  begin
    id 8
    name Spine1
    direction 0 0 0
    length 0
    axis -0.001389 0.00012144 6.56766e-006 xyz
    dof rx ry rz
  end
  begin
    id 9
    name RightShoulderDummy
    direction -0.98348 0.17941 -0.0240696
    length 3.59882
    axis -0.001389 0.00012144 6.56766e-006 xyz
  end
  begin
    id 10
    name RightShoulder
    direction -0.978693 0.204882 0.0135597
    length 2.70001
    axis 0.215806 0.000203631 -0.00679732 xyz
    dof rx ry rz
  end
  begin
    id 11
    name RightArm
    direction -1 3.85509e-006 8.31394e-007
    length 10.2459
    axis -23.2009 -0.134239 -0.964098 xyz
    dof rx ry rz
  end
  begin
    id 12
    name RightForeArm
    direction -1 3.85569e-006 8.3129e-007
    length 8.16799
    axis -9.92322 0.0658061 0.17887 xyz
    dof rx ry rz
  end
  begin
    id 13
    name RightHand
    direction -0.992843 -0.0414604 0.112003
    length 5.28593
    axis -0.00960638 0.00330669 -0.185225 xyz
    dof rx ry rz
  end
  begin
    id 14
    name LeftShoulder1Dummy
    direction 0.983523 0.179172 -0.0240748
    length 3.59866
    axis -0.001389 0.00012144 6.56766e-006 xyz
  end
  begin
    id 15
    name LeftShoulder1
    direction 0.978627 0.205195 0.0135605
    length 2.70019
    axis -0.001389 0.00012144 6.57583e-006 xyz
    dof rx ry rz
  end
  begin
    id 16
    name LeftArm
    direction 1 3.51895e-006 -8.60188e-007
    length 10.2459
    axis -23.1894 0.134785 0.967513 xyz
    dof rx ry rz
  end
  begin
    id 17
    name LeftForeArm
    direction 1 3.51921e-006 -7.32029e-007
    length 8.16799
    axis -9.91835 -0.0656957 -0.177789 xyz
    dof rx ry rz
  end
  begin
    id 18
    name LeftHand
    direction 0.992938 -0.0411636 0.11126
    length 5.32135
    axis -0.00960237 -0.00340661 0.185177 xyz
    dof rx ry rz
  end
  begin
    id 19
    name HEadDummy
    direction 1.01974e-006 0.999861 -0.016675
    length 2.99946
    axis -0.001389 0.00012144 6.56766e-006 xyz
  end
  begin
    id 20
    name HEad
    direction -0.0222689 0.980941 0.193023
    length 5.12695
    axis -0.001389 0.00012144 6.56766e-006 xyz
    dof rx ry rz
  end
  begin
    id 21
    name RightUpLegDummy
    direction -1 2.30186e-007 8.31532e-007
    length 2.93387
    axis 0 0 0 xyz
  end
  begin
    id 22
    name RightUpLeg
    direction -1.82966e-007 -1 1.56832e-007
    length 17.3336
    axis -3.4909 -0.000906625 0.00028951 xyz
    dof rx ry rz
  end
  begin
    id 23
    name RightLeg
    direction -1.82786e-007 -1 -1.80317e-007
    length 14.9995
    axis 3.68513 0.0193739 -0.131021 xyz
    dof rx ry rz
  end
  begin
    id 24
    name RightFoot
    direction 8.31721e-007 -4.63324e-011 1
    length 6.74421
    axis 4.81691e-005 -0.120479 -0.188785 xyz
    dof rx ry rz
  end
  begin
    id 25
    name RightToes
    direction 0.00124746 -0.014064 0.9999
    length 3.85082
    axis 0.000481921 0.542163 -0.142575 xyz
    dof rx ry rz
  end
:hierarchy
  begin
    root LeftUpLegDummy SpineDummy RightUpLegDummy
    LeftUpLegDummy LeftUpLeg
    LeftUpLeg LeftLeg
    LeftLeg LeftFoot
    LeftFoot LeftToes
    SpineDummy Spine
    Spine Spine1
    Spine1 RightShoulderDummy LeftShoulder1Dummy HEadDummy
    RightShoulderDummy RightShoulder
    RightShoulder RightArm
    RightArm RightForeArm
    RightForeArm RightHand
    LeftShoulder1Dummy LeftShoulder1
    LeftShoulder1 LeftArm
    LeftArm LeftForeArm
    LeftForeArm LeftHand
    HEadDummy HEad
    RightUpLegDummy RightUpLeg
    RightUpLeg RightLeg
    RightLeg RightFoot
    RightFoot RightToes
  end

:SAMPLES-PER-SECOND 30
:FULLY-SPECIFIED
:DEGREES
162
root  -7.65585 34.2675 9.75098 164.291 86.722 156.328
LeftUpLeg  -12.6132 7.84097 2.90383
LeftLeg  10.7651 3.67909 0.4556
LeftFoot  5.64343 -0.0173605 0.362387
LeftToes  -20.8198 6.91067e-007 1.07128e-007
Spine  2.41303 1.975 -0.196285
Spine1  4.76954 3.97256 -0.321696
RightShoulder  0.0285589 7.18879 6.03524
RightArm  -39.5206 -19.1127 70.0526
RightForeArm  21.351 19.684 3.61254
RightHand  0.407421 -6.54789 -6.73647
LeftShoulder1  0.000310084 1.9159 -9.76413
LeftArm  -17.3213 19.0608 -68.3829
LeftForeArm  26.5101 -22.6022 -4.20219
LeftHand  0.106037 4.54497 2.29814
HEad  0.557648 -17.486 -1.54589
RightUpLeg  -8.40055 -14.0518 3.16093
RightLeg  7.37921 -9.26052 -0.592148
RightFoot  -0.993948 -0.00747127 0.163454
RightToes  -21.133 -0.0868416 -0.184471
163
root  -7.66023 34.2689 9.71358 160.845 87.2668 152.807
LeftUpLeg  -12.4844 8.0331 2.90291
LeftLeg  10.5502 4.01014 0.481411
LeftFoot  5.63271 -0.0188811 0.394917
LeftToes  -20.9031 6.91067e-007 1.07128e-007
Spine  2.38822 1.93181 -0.254875
Spine1  4.71936 3.8927 -0.446737
RightShoulder  0.0277747 7.15495 6.0639
RightArm  -39.346 -18.9839 70.2342
RightForeArm  21.2314 19.7714 3.62995
RightHand  0.403753 -6.49622 -6.6328
LeftShoulder1  0.000650437 1.87609 -9.66927
LeftArm  -17.6259 19.4264 -68.6557
LeftForeArm  26.5083 -21.6368 -4.00349
LeftHand  0.107396 4.68245 2.26481
HEad  -0.433778 -22.7079 -0.589094
RightUpLeg  -8.53793 -13.747 3.14547
RightLeg  7.46131 -8.98162 -0.58734
RightFoot  -0.95421 -0.00680007 0.152306
RightToes  -21.0878 -0.086821 -0.184539
164
root  -7.66095 34.2703 9.67475 156.074 87.8282 147.954
LeftUpLeg  -12.3577 8.21336 2.92823
LeftLeg  10.3346 4.3739 0.508467
LeftFoot  5.60062 -0.0204831 0.429033
LeftToes  -20.8327 6.91067e-007 1.07128e-007
Spine  2.36389 1.88647 -0.314189
Spine1  4.67011 3.80835 -0.572042
RightShoulder  0.0269979 7.09484 6.1006
RightArm  -39.1688 -18.8243 70.4751
RightForeArm  21.3289 19.7724 3.63013
RightHand  0.398753 -6.55868 -6.57423
LeftShoulder1  0.000975889 1.73201 -9.5544
LeftArm  -18.0529 19.8309 -68.8698
LeftForeArm  26.5319 -20.8458 -3.84274
LeftHand  0.108723 4.8506 2.19343
HEad  -1.46452 -27.9008 0.510863
RightUpLeg  -8.6455 -13.4882 3.1614
RightLeg  7.46486 -8.65851 -0.566918
RightFoot  -0.862359 -0.00558274 0.132891
RightToes  -21.1033 -0.0868335 -0.184639
165
root  -7.66373 34.2723 9.63848 149.354 88.2858 141.166
LeftUpLeg  -12.2598 8.29377 2.93226
LeftLeg  10.172 4.7888 0.542968
LeftFoot  5.55869 -0.0223277 0.467195
LeftToes  -20.7827 6.91067e-007 1.07128e-007
Spine  2.34213 1.78556 -0.370152
Spine1  4.62607 3.61287 -0.69176
RightShoulder  0.0262149 7.06842 6.16742
RightArm  -38.8692 -18.6441 70.6976
RightForeArm  21.4245 19.6827 3.61228
RightHand  0.395458 -6.52974 -6.49217
LeftShoulder1  0.00128198 1.57247 -9.46588
LeftArm  -18.1587 20.2337 -68.9173
LeftForeArm  26.3273 -20.2072 -3.7143
LeftHand  0.111106 4.91211 2.23999
HEad  -2.61774 -32.7417 1.75547
RightUpLeg  -8.72003 -13.2244 3.16487
RightLeg  7.42117 -8.42494 -0.545314
RightFoot  -0.746719 -0.00427321 0.11235
RightToes  -21.2123 -0.0868714 -0.184758
166
root  -7.6666 34.2758 9.60102 136.502 88.7473 128.251
LeftUpLeg  -12.1073 8.38642 2.94229
LeftLeg  9.92323 5.25911 0.573204
LeftFoot  5.56547 -0.0247452 0.514485
LeftToes  -20.7889 6.91067e-007 1.07128e-007
Spine  2.32124 1.68378 -0.41321
Spine1  4.5849 3.41413 -0.784904
RightShoulder  0.0254111 7.01348 6.14382
RightArm  -38.5113 -18.4659 71.0214
RightForeArm  21.4958 19.5945 3.59473
RightHand  0.392334 -6.56226 -6.45899
LeftShoulder1  0.00156425 1.36702 -9.30168
LeftArm  -18.3736 20.6493 -68.9608
LeftForeArm  26.2488 -19.7997 -3.63291
LeftHand  0.11194 4.99705 2.19196
HEad  -3.9744 -37.0093 3.19541
RightUpLeg  -8.79841 -12.9236 3.16791
RightLeg  7.40727 -8.14908 -0.525604
RightFoot  -0.661491 -0.00325261 0.0966989
RightToes  -21.1023 -0.0869266 -0.184884
167
root  -7.67377 34.2787 9.56111 104.052 89.1226 95.759
LeftUpLeg  -11.972 8.7301 2.96939
LeftLeg  9.776 5.56542 0.592124
LeftFoot  5.49015 -0.0255805 0.537369
LeftToes  -20.7144 6.91067e-007 1.07128e-007
Spine  2.31154 1.61768 -0.44667
Spine1  4.56761 3.28379 -0.85632
RightShoulder  0.0246001 6.95329 6.0756
RightArm  -38.2909 -18.351 71.4131
RightForeArm  21.5553 19.679 3.61154
RightHand  0.390169 -6.55875 -6.45767
LeftShoulder1  0.00181824 1.15685 -9.06947
LeftArm  -18.5107 21.0137 -68.9927
LeftForeArm  26.303 -19.7119 -3.6154
LeftHand  0.113213 5.0704 2.1836
HEad  -5.5728 -40.5625 4.75342
RightUpLeg  -8.89149 -12.6084 3.1804
RightLeg  7.43417 -7.7669 -0.504753
RightFoot  -0.576443 -0.00216679 0.0805343
RightToes  -21.2376 -0.0869915 -0.185004
